ply
format ascii 1.0
comment PCL generated
element vertex 15
property float x
property float y
property float z
property uchar red
property uchar green
property uchar blue
end_header
-0.00798705 -0.16058352  0.24304043 255 0 255
-0.00283543 -0.14915169  0.20041849 255 0 255
 0.01799895 -0.16501212  0.24080673 255 0 255
 0.01820275 -0.16526858  0.2408204  255 0 255
 0.01866513 -0.16593021  0.24091939 255 0 255
 0.02100068 -0.17061868  0.24145928 255 0 255
 0.00062929 -0.1928241   0.18225447 255 0 255
 0.02137815 -0.15808598  0.23196909 255 0 255
 0.00145353 -0.14583797  0.22294027 255 0 255
-0.02828695 -0.16763951  0.19816993 255 0 255
-0.0194317 -0.161578   0.2378735 255 0 255
-0.02833789 -0.16758206  0.19814682 255 0 255
-0.0053052  -0.19262197  0.2473856  255 0 255
 0.00104785 -0.14610395  0.2057527  255 0 255
 0.01036897 -0.16302611  0.24395694 255 0 255
