ply
format ascii 1.0
comment PCL generated
element vertex 120
property float x
property float y
property float z
property uchar red
property uchar green
property uchar blue
end_header
-0.01924069 -0.17999968  0.21461667 255 0 255
-0.01505524 -0.18723387  0.22238443 255 0 255
-0.0102895  -0.18611858  0.19604894 255 0 255
-0.01089443 -0.18610638  0.19607083 255 0 255
-0.01115571 -0.18606517  0.19608278 255 0 255
-0.01124262 -0.18600957  0.19608682 255 0 255
-0.01128667 -0.18594943  0.19608799 255 0 255
-0.01131711 -0.1858835   0.19608733 255 0 255
-0.01343962 -0.18574283  0.19608412 255 0 255
-0.01334587 -0.185702    0.19608068 255 0 255
-0.01329713 -0.18568508  0.19607797 255 0 255
-0.0132637  -0.18567625  0.19607552 255 0 255
-0.01323885 -0.1856709   0.19607349 255 0 255
-0.01321929 -0.18566722  0.19607182 255 0 255
-0.01320298 -0.18566439  0.19607042 255 0 255
-0.0131892  -0.18566211  0.19606923 255 0 255
-0.01317781 -0.1856603   0.19606826 255 0 255
-0.01316884 -0.18565893  0.19606749 255 0 255
-0.0131623  -0.185658    0.19606693 255 0 255
-0.01316072 -0.18565794  0.19606675 255 0 255
-0.01316117 -0.18565825  0.19606673 255 0 255
-0.01315784 -0.18565789  0.19606642 255 0 255
-0.01315557 -0.18565768  0.1960662  255 0 255
-0.01315467 -0.1856577   0.19606609 255 0 255
-0.01316034 -0.18565886  0.19606649 255 0 255
-0.01315897 -0.18565879  0.19606634 255 0 255
-0.01315293 -0.18565787  0.19606584 255 0 255
-0.01314989 -0.18565746  0.19606558 255 0 255
-0.0131522  -0.18565797  0.19606573 255 0 255
-0.01315659 -0.18565885  0.19606604 255 0 255
-0.01315781 -0.18565915  0.19606611 255 0 255
-0.01316209 -0.18566001  0.19606642 255 0 255
-0.02129757 -0.18000014  0.21555802 255 0 255
-0.01680468 -0.18704714  0.22921709 255 0 255
-0.02128148 -0.17999952  0.21555066 255 0 255
-0.01677215 -0.18705458  0.22921506 255 0 255
-0.02126845 -0.17999902  0.21554469 255 0 255
-0.0167459  -0.18706076  0.22921334 255 0 255
-0.0212603  -0.17999872  0.21554096 255 0 255
-0.01672937 -0.18706435  0.22921237 255 0 255
-0.02125607 -0.17999856  0.21553903 255 0 255
-0.01672081 -0.18706617  0.22921187 255 0 255
-0.02125484 -0.17999852  0.21553847 255 0 255
-0.01671832 -0.1870667   0.22921172 255 0 255
-0.02125586 -0.17999855  0.21553893 255 0 255
-0.0167204  -0.18706624  0.22921182 255 0 255
-0.02125832 -0.17999864  0.21554006 255 0 255
-0.01672541 -0.18706516  0.22921209 255 0 255
-0.02126156 -0.17999876  0.21554154 255 0 255
-0.01673201 -0.18706373  0.22921246 255 0 255
-0.02126513 -0.1799989   0.21554318 255 0 255
-0.01673927 -0.18706217  0.22921287 255 0 255
-0.02126893 -0.17999904  0.21554491 255 0 255
-0.01674695 -0.18706046  0.22921333 255 0 255
-0.02127273 -0.17999918  0.21554665 255 0 255
-0.01675462 -0.1870587   0.22921382 255 0 255
-0.02127596 -0.17999931  0.21554813 255 0 255
-0.01676115 -0.1870572   0.22921424 255 0 255
-0.02127876 -0.17999941  0.21554941 255 0 255
-0.01676679 -0.1870559   0.22921459 255 0 255
-0.02128106 -0.1799995   0.21555047 255 0 255
-0.01677138 -0.1870547   0.22921495 255 0 255
-0.02128298 -0.17999957  0.21555134 255 0 255
-0.01677524 -0.18705383  0.2292152  255 0 255
-0.02128469 -0.17999964  0.21555213 255 0 255
-0.01677868 -0.18705305  0.22921543 255 0 255
-0.02128596 -0.17999969  0.21555271 255 0 255
-0.01678123 -0.18705248  0.2292156  255 0 255
-0.02128625 -0.1799997   0.21555284 255 0 255
-0.01678183 -0.18705235  0.22921564 255 0 255
-0.0212863  -0.1799997   0.21555286 255 0 255
-0.01678191 -0.18705233  0.22921565 255 0 255
-0.02128639 -0.17999971  0.2155529  255 0 255
-0.0167821  -0.18705229  0.22921566 255 0 255
-0.02128686 -0.17999972  0.21555312 255 0 255
-0.01678304 -0.18705208  0.22921573 255 0 255
-0.02128689 -0.17999972  0.21555313 255 0 255
-0.0167831  -0.18705207  0.22921574 255 0 255
-0.0212867  -0.17999972  0.21555305 255 0 255
-0.01678272 -0.18705215  0.22921571 255 0 255
-0.02128684 -0.17999972  0.21555311 255 0 255
-0.016783   -0.18705209  0.22921573 255 0 255
-0.0212867  -0.17999972  0.21555305 255 0 255
-0.01678271 -0.18705216  0.22921572 255 0 255
-0.02128664 -0.17999971  0.21555302 255 0 255
-0.01678259 -0.18705219  0.22921571 255 0 255
-0.02128659 -0.17999971  0.21555299 255 0 255
-0.01678248 -0.18705222  0.2292157  255 0 255
-0.02128652 -0.17999971  0.21555296 255 0 255
-0.01678235 -0.18705225  0.2292157  255 0 255
-0.02128639 -0.17999971  0.2155529  255 0 255
-0.01678207 -0.18705231  0.22921568 255 0 255
-0.01725941 -0.18865672  0.23287121 255 0 255
-0.01720539 -0.18869944  0.2329296  255 0 255
-0.01720074 -0.18873001  0.23299573 255 0 255
-0.01727881 -0.18874007  0.23306925 255 0 255
-0.01740749 -0.1887352   0.23314488 255 0 255
-0.01755508 -0.18872307  0.23321691 255 0 255
-0.01775399 -0.18869465  0.23329321 255 0 255
-0.01798744 -0.18865139  0.23337213 255 0 255
-0.01823775 -0.18859496  0.23345156 255 0 255
-0.01846575 -0.18853594  0.23351756 255 0 255
-0.01867333 -0.18847474  0.23357481 255 0 255
-0.01887674 -0.18840927  0.2336286  255 0 255
-0.01908195 -0.18833543  0.23368117 255 0 255
-0.01924272 -0.18827484  0.23372051 255 0 255
-0.01930991 -0.18824892  0.23373623 255 0 255
-0.01934957 -0.18823193  0.23374556 255 0 255
-0.01938856 -0.18821529  0.23375445 255 0 255
-0.01942734 -0.18819893  0.23376319 255 0 255
-0.01947631 -0.1881794   0.23377404 255 0 255
-0.01952004 -0.18816028  0.23378436 255 0 255
-0.01955106 -0.18814629  0.23379177 255 0 255
-0.01960486 -0.18812215  0.23380473 255 0 255
-0.01966287 -0.18809642  0.23381845 255 0 255
-0.01973874 -0.18806193  0.23383666 255 0 255
-0.01982192 -0.18802471  0.23385634 255 0 255
-0.01991375 -0.18797985  0.23387924 255 0 255
-0.01999554 -0.18793921  0.23389976 255 0 255
-0.0200478  -0.18791324  0.23391272 255 0 255
